<svg width="20" height="20" viewBox="0 0 20 20" fill="none" xmlns="http://www.w3.org/2000/svg">
<g clip-path="url(#clip0_20_10)">
<path fill-rule="evenodd" clip-rule="evenodd" d="M2.17834 4.52167C2.27295 4.29323 2.43319 4.09799 2.63878 3.96063C2.84437 3.82327 3.08608 3.74997 3.33334 3.75H11.6667C13.3243 3.75 14.914 4.40848 16.0861 5.58058C17.2582 6.75268 17.9167 8.3424 17.9167 10C17.9167 11.6576 17.2582 13.2473 16.0861 14.4194C14.914 15.5915 13.3243 16.25 11.6667 16.25H4.16667C3.83515 16.25 3.51721 16.1183 3.28279 15.8839C3.04837 15.6495 2.91667 15.3315 2.91667 15C2.91667 14.6685 3.04837 14.3505 3.28279 14.1161C3.51721 13.8817 3.83515 13.75 4.16667 13.75H11.6667C12.6612 13.75 13.6151 13.3549 14.3183 12.6516C15.0216 11.9484 15.4167 10.9946 15.4167 10C15.4167 9.00544 15.0216 8.05161 14.3183 7.34835C13.6151 6.64509 12.6612 6.25 11.6667 6.25H6.35084L7.13417 7.03333C7.36176 7.26919 7.4876 7.58501 7.4846 7.91275C7.4816 8.2405 7.34999 8.55395 7.11812 8.7856C6.88625 9.01726 6.57267 9.14857 6.24492 9.15126C5.91717 9.15395 5.60148 9.02781 5.36584 8.8L2.44917 5.88333C2.27449 5.70855 2.15553 5.48592 2.10733 5.24356C2.05912 5.0012 2.08383 4.74999 2.17834 4.52167Z" fill="white"/>
</g>
<defs>
<clipPath id="clip0_20_10">
<rect width="20" height="20" fill="white"/>
</clipPath>
</defs>
</svg>
