<svg width="24" height="24" viewBox="0 0 24 24" fill="none" xmlns="http://www.w3.org/2000/svg">
<path d="M6 24H2V15H6V24Z" fill="#FFF0F2"/>
<path d="M14 19.9091H21C21.5304 19.9091 22.0391 20.0815 22.4142 20.3884C22.7893 20.6952 23 21.1115 23 21.5455L15 24L8 22.3636V15H9.97L17.23 17.2173C17.69 17.3645 18 17.7245 18 18.1255C18 18.6573 17.47 19.0909 16.82 19.0909H14L12.24 18.5427L11.91 19.3118L14 19.9091Z" fill="#FFF0F2"/>
<path d="M17.8613 2.61843C17.8201 2.58532 17.7706 2.56404 17.7182 2.55687C17.6658 2.54971 17.6125 2.55693 17.5639 2.57776L12.8307 4.62733C12.6249 4.717 12.3672 4.75962 12.1026 4.75962C11.7337 4.76109 11.352 4.67535 11.0859 4.55873C11.0048 4.52459 10.9276 4.48188 10.8556 4.43134C10.8752 4.42154 10.8997 4.41076 10.9267 4.39998L15.2316 2.53611L15.8735 2.8105V2.00841C15.8744 1.95121 15.8625 1.89453 15.8385 1.84261C15.8144 1.79068 15.779 1.74485 15.7348 1.70854C15.6938 1.67547 15.6445 1.6542 15.5922 1.64704C15.54 1.63987 15.4868 1.64708 15.4384 1.66787L10.7052 3.71745C10.5592 3.77624 10.4338 3.84876 10.3279 3.9541C10.2054 4.07501 10.1358 4.23959 10.1344 4.41174C10.1344 4.41664 10.1358 4.42497 10.1358 4.42497V11.6423L10.1349 11.6521C10.1349 11.6541 10.1363 11.6551 10.1363 11.657V11.6649H10.1373C10.1471 11.9172 10.2745 12.0779 10.396 12.1916C10.7782 12.5287 11.4201 12.7173 12.1031 12.7271C12.4265 12.7271 12.7548 12.6781 13.0586 12.5478L17.7932 10.4977C17.9181 10.4438 18 10.3101 18 10.1587V2.91829C18.0007 2.86113 17.9887 2.80452 17.9647 2.75263C17.9407 2.70073 17.9053 2.65488 17.8613 2.61843ZM14.8592 1.2465C14.8509 1.1387 14.8063 1.03581 14.7269 0.974068C14.6857 0.940955 14.6362 0.919677 14.5839 0.912513C14.5315 0.905349 14.4781 0.91257 14.4295 0.9334L9.69634 2.98199C9.49055 3.07117 9.23233 3.11428 8.96823 3.11428C8.59928 3.11526 8.21759 3.02952 7.95153 2.91241C7.87037 2.87884 7.79315 2.83644 7.72125 2.786C7.74084 2.7762 7.76534 2.76542 7.79229 2.75464L12.0977 0.890772L12.7396 1.16516V0.364048C12.7405 0.306814 12.7284 0.250122 12.7043 0.198201C12.6802 0.146279 12.6447 0.100467 12.6004 0.0641823C12.5593 0.0311114 12.5099 0.00985597 12.4576 0.00269217C12.4053 -0.00447163 12.352 0.00272604 12.3035 0.0235143L7.57033 2.07357C7.42432 2.13237 7.29938 2.2044 7.19305 2.31023C7.07067 2.43122 7.00125 2.59579 7 2.76787C7 2.77375 7.00147 2.78159 7.00147 2.78159V10.022H7.00245C7.01225 10.2743 7.13964 10.435 7.26116 10.5487C7.64334 10.8858 8.28521 11.0739 8.96872 11.0837C9.15435 11.0827 9.33937 11.0626 9.52093 11.024V4.42448C9.51603 4.0815 9.65322 3.75223 9.89429 3.51509C10.0613 3.35308 10.2597 3.22701 10.4774 3.14466L14.8592 1.2465Z" fill="#FFF0F2"/>
</svg>
