<svg width="32" height="32" viewBox="0 0 32 32" fill="none" xmlns="http://www.w3.org/2000/svg">
<g id="class">
<path id="Vector" fill-rule="evenodd" clip-rule="evenodd" d="M25.6026 19.5126H16.4601C17.4975 19.4202 18.4594 18.9317 19.1459 18.1486C19.8325 17.3655 20.1909 16.3479 20.1467 15.3074C20.1026 14.2669 19.6592 13.2834 18.9088 12.5612C18.1583 11.8391 17.1585 11.4338 16.1171 11.4297H13.1306C13.5771 10.8293 13.8964 10.1442 14.0691 9.41622C14.2418 8.68823 14.2642 7.93267 14.1349 7.19574C14.0056 6.45881 13.7274 5.75599 13.3172 5.13026C12.907 4.50452 12.3736 3.96902 11.7494 3.55649L25.6026 3.55649C26.2384 3.55743 26.8479 3.81068 27.2972 4.26064C27.7465 4.71059 27.9988 5.32045 27.9988 5.95631V17.1182C27.9988 18.4407 26.9251 19.5144 25.6026 19.5144V19.5126ZM8.70783 11.4332C9.14554 11.4434 9.58088 11.366 9.98825 11.2055C10.3956 11.0451 10.7668 10.8048 11.08 10.4988C11.3931 10.1928 11.642 9.82734 11.8119 9.42382C11.9818 9.02029 12.0693 8.58687 12.0693 8.14904C12.0693 7.7112 11.9818 7.27778 11.8119 6.87426C11.642 6.47073 11.3931 6.10524 11.08 5.79927C10.7668 5.49329 10.3956 5.25301 9.98825 5.09254C9.58088 4.93207 9.14554 4.85465 8.70783 4.86484C7.85003 4.88479 7.03409 5.23957 6.43447 5.8533C5.83485 6.46703 5.49915 7.29101 5.49915 8.14904C5.49915 9.00706 5.83485 9.83104 6.43447 10.4448C7.03409 11.0585 7.85003 11.4133 8.70783 11.4332ZM17.9427 15.4792C17.9427 14.4695 17.125 13.6517 16.1171 13.6517H8.7096C8.09091 13.6515 7.47824 13.7732 6.9066 14.0098C6.33495 14.2465 5.81555 14.5935 5.37807 15.031C4.94059 15.4685 4.59361 15.9879 4.35695 16.5595C4.1203 17.1311 3.99861 17.7438 3.99884 18.3625V20.5046C3.99884 21.4503 4.76678 22.2164 5.71249 22.2164H6.01825L6.51954 26.8561C6.56642 27.2917 6.77253 27.6947 7.09832 27.9877C7.4241 28.2806 7.8466 28.443 8.28475 28.4435H9.17712C9.60595 28.4433 10.0203 28.2882 10.3437 28.0066C10.6671 27.725 10.8778 27.3359 10.937 26.9112L12.2756 17.3048H16.1153C17.1232 17.3048 17.9409 16.4871 17.9409 15.4792H17.9427Z" fill="white"/>
</g>
</svg>
