<svg width="32" height="32" viewBox="0 0 32 32" fill="none" xmlns="http://www.w3.org/2000/svg">
<g id="clock">
<path id="Vector" d="M30 16C30 19.713 28.525 23.274 25.8995 25.8995C23.274 28.525 19.713 30 16 30C12.287 30 8.72601 28.525 6.10051 25.8995C3.475 23.274 2 19.713 2 16C2 12.287 3.475 8.72601 6.10051 6.10051C8.72601 3.475 12.287 2 16 2C19.713 2 23.274 3.475 25.8995 6.10051C28.525 8.72601 30 12.287 30 16ZM16 8.125C16 7.89294 15.9078 7.67038 15.7437 7.50628C15.5796 7.34219 15.3571 7.25 15.125 7.25C14.8929 7.25 14.6704 7.34219 14.5063 7.50628C14.3422 7.67038 14.25 7.89294 14.25 8.125V17.75C14.25 17.9042 14.2909 18.0557 14.3683 18.1891C14.4458 18.3225 14.5571 18.433 14.691 18.5095L20.816 22.0095C21.017 22.1181 21.2525 22.1438 21.4722 22.0811C21.6919 22.0184 21.8784 21.8722 21.9917 21.6738C22.1051 21.4755 22.1364 21.2406 22.0789 21.0195C22.0214 20.7984 21.8796 20.6085 21.684 20.4905L16 17.2425V8.125Z" fill="#00072C"/>
</g>
</svg>
