<svg width="32" height="32" viewBox="0 0 32 32" fill="none" xmlns="http://www.w3.org/2000/svg">
<g id="date" clip-path="url(#clip0_8_4)">
<path id="Vector" d="M28.6666 5.33333H25.1111V8C25.1111 8.25681 25.0605 8.5111 24.9622 8.74836C24.864 8.98562 24.7199 9.2012 24.5383 9.38279C24.3567 9.56438 24.1412 9.70842 23.9039 9.8067C23.6666 9.90497 23.4123 9.95555 23.1555 9.95555C22.8987 9.95555 22.6444 9.90497 22.4072 9.8067C22.1699 9.70842 21.9543 9.56438 21.7727 9.38279C21.5912 9.2012 21.4471 8.98562 21.3488 8.74836C21.2506 8.5111 21.2 8.25681 21.2 8V5.33333H10.8444V8C10.8444 8.51864 10.6384 9.01605 10.2717 9.38278C9.90492 9.74952 9.40751 9.95555 8.88887 9.95555C8.37022 9.95555 7.87282 9.74952 7.50608 9.38278C7.13934 9.01605 6.93331 8.51864 6.93331 8V5.33333H3.37776C3.16622 5.33092 2.95635 5.37096 2.76056 5.45108C2.56477 5.53119 2.38703 5.64975 2.23786 5.79975C2.08868 5.94976 1.97111 6.12815 1.89208 6.32438C1.81305 6.52061 1.77418 6.7307 1.77776 6.94222V26.8356C1.77422 27.0433 1.81166 27.2498 1.88793 27.4431C1.9642 27.6364 2.0778 27.8128 2.22225 27.9622C2.36671 28.1116 2.53918 28.2311 2.72981 28.3139C2.92045 28.3966 3.12552 28.441 3.33331 28.4444H28.6666C28.8744 28.441 29.0795 28.3966 29.2701 28.3139C29.4608 28.2311 29.6332 28.1116 29.7777 27.9622C29.9222 27.8128 30.0358 27.6364 30.112 27.4431C30.1883 27.2498 30.2257 27.0433 30.2222 26.8356V6.94222C30.2257 6.73443 30.1883 6.52798 30.112 6.33467C30.0358 6.14135 29.9222 5.96495 29.7777 5.81555C29.6332 5.66614 29.4608 5.54666 29.2701 5.46392C29.0795 5.38118 28.8744 5.3368 28.6666 5.33333ZM8.88887 23.1111H7.11109V21.3333H8.88887V23.1111ZM8.88887 18.6667H7.11109V16.8889H8.88887V18.6667ZM8.88887 14.2222H7.11109V12.4444H8.88887V14.2222ZM14.2222 23.1111H12.4444V21.3333H14.2222V23.1111ZM14.2222 18.6667H12.4444V16.8889H14.2222V18.6667ZM14.2222 14.2222H12.4444V12.4444H14.2222V14.2222ZM19.5555 23.1111H17.7778V21.3333H19.5555V23.1111ZM19.5555 18.6667H17.7778V16.8889H19.5555V18.6667ZM19.5555 14.2222H17.7778V12.4444H19.5555V14.2222ZM24.8889 23.1111H23.1111V21.3333H24.8889V23.1111ZM24.8889 18.6667H23.1111V16.8889H24.8889V18.6667ZM24.8889 14.2222H23.1111V12.4444H24.8889V14.2222Z" fill="#00072C"/>
<path id="Vector_2" d="M8.88889 8.88889C9.12464 8.88889 9.35073 8.79524 9.51743 8.62854C9.68413 8.46184 9.77778 8.23575 9.77778 8V2.66667C9.77778 2.43092 9.68413 2.20483 9.51743 2.03813C9.35073 1.87143 9.12464 1.77778 8.88889 1.77778C8.65314 1.77778 8.42705 1.87143 8.26035 2.03813C8.09365 2.20483 8 2.43092 8 2.66667V8C8 8.23575 8.09365 8.46184 8.26035 8.62854C8.42705 8.79524 8.65314 8.88889 8.88889 8.88889Z" fill="#00072C"/>
<path id="Vector_3" d="M23.1111 8.88889C23.3469 8.88889 23.573 8.79524 23.7397 8.62854C23.9064 8.46184 24 8.23575 24 8V2.66667C24 2.43092 23.9064 2.20483 23.7397 2.03813C23.573 1.87143 23.3469 1.77778 23.1111 1.77778C22.8754 1.77778 22.6493 1.87143 22.4826 2.03813C22.3159 2.20483 22.2222 2.43092 22.2222 2.66667V8C22.2222 8.23575 22.3159 8.46184 22.4826 8.62854C22.6493 8.79524 22.8754 8.88889 23.1111 8.88889Z" fill="#00072C"/>
</g>
<defs>
<clipPath id="clip0_8_4">
<rect width="32" height="32" fill="white"/>
</clipPath>
</defs>
</svg>
