<svg width="32" height="32" viewBox="0 0 32 32" fill="none" xmlns="http://www.w3.org/2000/svg">
<g id="faculty">
<path id="Vector" d="M16 2.5C19.315 2.5 22 5.185 22 8.5C22 11.815 19.315 14.5 16 14.5C12.685 14.5 10 11.815 10 8.5C10 5.185 12.685 2.5 16 2.5ZM22 18.31C22 19.9 21.58 23.605 18.715 27.745L17.5 20.5L18.91 17.68C17.98 17.575 17.005 17.5 16 17.5C14.995 17.5 14.02 17.575 13.09 17.68L14.5 20.5L13.285 27.745C10.42 23.605 10 19.9 10 18.31C6.415 19.36 4 21.25 4 23.5V29.5H28V23.5C28 21.25 25.6 19.36 22 18.31Z" fill="white"/>
</g>
</svg>
