<svg width="12" height="12" viewBox="0 0 12 12" fill="none" xmlns="http://www.w3.org/2000/svg">
<g clip-path="url(#clip0_19_2)">
<path d="M7.33335 11V6.5L11.1567 2.66667C11.2135 2.60985 11.2584 2.54224 11.2887 2.46783C11.3191 2.39342 11.3342 2.31369 11.3334 2.23334V1.66667C11.3334 1.57826 11.2982 1.49348 11.2357 1.43097C11.1732 1.36845 11.0884 1.33334 11 1.33334H1.00002C0.911615 1.33334 0.82683 1.36845 0.764318 1.43097C0.701806 1.49348 0.666687 1.57826 0.666687 1.66667V2.22334C0.666749 2.30206 0.682392 2.38 0.712713 2.45266C0.743034 2.52531 0.787433 2.59125 0.843354 2.64667L4.66669 6.52667V9.92667L7.33335 11Z" fill="white"/>
<path d="M11.16 1.33334H0.826636C0.783014 1.3367 0.742279 1.35644 0.712603 1.38859C0.682927 1.42074 0.666507 1.46292 0.666636 1.50667V2.08C0.666236 2.13877 0.677522 2.19703 0.69984 2.25139C0.722158 2.30575 0.755061 2.35514 0.796636 2.39667L4.79664 6.39667V9.73L7.2133 10.9333V6.39L11.2133 2.39C11.2898 2.30746 11.3326 2.19923 11.3333 2.08667V1.50667C11.3333 1.4607 11.315 1.41661 11.2825 1.3841C11.25 1.3516 11.2059 1.33334 11.16 1.33334Z" fill="white"/>
</g>
<defs>
<clipPath id="clip0_19_2">
<rect width="12" height="12" fill="white"/>
</clipPath>
</defs>
</svg>
