<svg width="32" height="34" viewBox="0 0 32 34" fill="none" xmlns="http://www.w3.org/2000/svg">
<path fill-rule="evenodd" clip-rule="evenodd" d="M3.04762 27.4286H15.3752C15.5393 28.5061 15.912 29.5413 16.4724 30.4762H3.04762C2.23934 30.4762 1.46417 30.1551 0.892627 29.5836C0.321087 29.012 0 28.2369 0 27.4286V6.09524H3.04762V27.4286ZM16.7619 0H24.381C25.1892 0 25.9644 0.321087 26.5359 0.892627C27.1075 1.46417 27.4286 2.23934 27.4286 3.04762V17.28C26.1716 16.8372 24.833 16.6745 23.5066 16.8033C22.1801 16.9321 20.8979 17.3494 19.7496 18.0259C18.6014 18.7023 17.6149 19.6216 16.8593 20.7194C16.1036 21.8172 15.5971 23.0669 15.3752 24.381H9.14286C8.33458 24.381 7.5594 24.0599 6.98786 23.4883C6.41633 22.9168 6.09524 22.1416 6.09524 21.3333V3.04762C6.09524 2.23934 6.41633 1.46417 6.98786 0.892627C7.5594 0.321087 8.33458 0 9.14286 0H10.6667V7.61905L13.7143 5.33333L16.7619 7.61905V0ZM24.381 33.5238C28.5888 33.5238 32 30.1126 32 25.9048C32 21.6969 28.5888 18.2857 24.381 18.2857C20.1731 18.2857 16.7619 21.6969 16.7619 25.9048C16.7619 30.1126 20.1731 33.5238 24.381 33.5238Z" fill="white"/>
<path d="M26.4128 25.9048C26.4128 25.3439 26.2143 24.8651 25.8175 24.4683C25.4207 24.0714 24.9419 23.873 24.381 23.873C23.8202 23.873 23.3413 24.0714 22.9445 24.4683C22.5477 24.8651 22.3493 25.3439 22.3493 25.9048C22.3493 26.4656 22.5477 26.9444 22.9445 27.3413C23.3413 27.7381 23.8202 27.9365 24.381 27.9365C24.9419 27.9365 25.4207 27.7381 25.8175 27.3413C26.2143 26.9444 26.4128 26.4656 26.4128 25.9048ZM30.4762 25.0397V26.8016C30.4762 26.8651 30.4551 26.9259 30.4128 26.9841C30.3704 27.0423 30.3175 27.0767 30.254 27.0873L28.7858 27.3095C28.6852 27.5952 28.5821 27.836 28.4762 28.0317C28.6614 28.2963 28.9445 28.6614 29.3254 29.127C29.3784 29.1905 29.4048 29.2566 29.4048 29.3254C29.4048 29.3942 29.381 29.455 29.3334 29.5079C29.1905 29.7037 28.9286 29.9894 28.5477 30.3651C28.1667 30.7407 27.918 30.9286 27.8016 30.9286C27.7381 30.9286 27.6694 30.9048 27.5953 30.8571L26.5001 30C26.2672 30.1217 26.0265 30.2222 25.7778 30.3016C25.6932 31.0212 25.6165 31.5132 25.5477 31.7778C25.5106 31.9259 25.4154 32 25.262 32H23.5001C23.426 32 23.3612 31.9775 23.3056 31.9325C23.2501 31.8876 23.2196 31.8307 23.2143 31.7619L22.9921 30.3016C22.7329 30.2169 22.4948 30.119 22.2778 30.0079L21.1588 30.8571C21.1059 30.9048 21.0397 30.9286 20.9604 30.9286C20.8863 30.9286 20.8202 30.8995 20.762 30.8413C20.0953 30.2381 19.6588 29.7937 19.4524 29.5079C19.4154 29.455 19.3969 29.3942 19.3969 29.3254C19.3969 29.2619 19.418 29.2011 19.4604 29.1429C19.5397 29.0317 19.6747 28.8558 19.8651 28.6151C20.0556 28.3743 20.1985 28.1878 20.2937 28.0556C20.1508 27.791 20.0424 27.5291 19.9683 27.2698L18.5159 27.0556C18.4471 27.045 18.3916 27.0119 18.3493 26.9564C18.3069 26.9008 18.2858 26.8386 18.2858 26.7698V25.0079C18.2858 24.9444 18.3069 24.8836 18.3493 24.8254C18.3916 24.7672 18.4419 24.7328 18.5001 24.7222L19.9762 24.5C20.0503 24.2566 20.1535 24.0132 20.2858 23.7698C20.0741 23.4683 19.7911 23.1032 19.4366 22.6746C19.3837 22.6111 19.3572 22.5476 19.3572 22.4841C19.3572 22.4312 19.381 22.3704 19.4286 22.3016C19.5662 22.1111 19.8268 21.8267 20.2104 21.4484C20.594 21.0701 20.844 20.881 20.9604 20.881C21.0292 20.881 21.0979 20.9074 21.1667 20.9603L22.262 21.8095C22.4948 21.6878 22.7355 21.5873 22.9842 21.5079C23.0688 20.7884 23.1456 20.2963 23.2143 20.0317C23.2514 19.8836 23.3466 19.8095 23.5001 19.8095H25.262C25.336 19.8095 25.4008 19.832 25.4564 19.877C25.512 19.922 25.5424 19.9788 25.5477 20.0476L25.7699 21.5079C26.0292 21.5926 26.2672 21.6905 26.4842 21.8016L27.6112 20.9524C27.6588 20.9048 27.7223 20.881 27.8016 20.881C27.8704 20.881 27.9366 20.9074 28.0001 20.9603C28.6826 21.5899 29.1191 22.0397 29.3096 22.3095C29.3466 22.3519 29.3651 22.4101 29.3651 22.4841C29.3651 22.5476 29.344 22.6085 29.3016 22.6667C29.2223 22.7778 29.0874 22.9537 28.8969 23.1944C28.7064 23.4352 28.5635 23.6217 28.4683 23.754C28.6059 24.0185 28.7143 24.2778 28.7937 24.5317L30.2461 24.754C30.3149 24.7646 30.3704 24.7976 30.4128 24.8532C30.4551 24.9087 30.4762 24.9709 30.4762 25.0397Z" fill="#00072C"/>
</svg>
