<svg width="24" height="24" viewBox="0 0 24 24" fill="none" xmlns="http://www.w3.org/2000/svg">
<path d="M7.00003 7.846V4.616H17V7.846H7.00003ZM17.615 12.116C17.8984 12.116 18.136 12.02 18.328 11.828C18.52 11.636 18.6157 11.3983 18.615 11.115C18.6144 10.8317 18.5187 10.5943 18.328 10.403C18.1374 10.2117 17.8997 10.1157 17.615 10.115C17.3304 10.1143 17.093 10.2103 16.903 10.403C16.713 10.5957 16.617 10.833 16.615 11.115C16.613 11.397 16.709 11.6347 16.903 11.828C17.097 12.0213 17.3344 12.117 17.615 12.115M8.00003 19H16V14.462H8.00003V19ZM7.00003 20V16H3.57703V8.615H20.423V16H17V20H7.00003Z" fill="white"/>
</svg>
