<svg width="32" height="32" viewBox="0 0 32 32" fill="none" xmlns="http://www.w3.org/2000/svg">
<g id="students">
<path id="Vector" d="M20.5956 16.393C22.4886 16.393 24.1171 14.7027 24.1171 12.5016C24.1171 10.327 22.48 8.716 20.5956 8.716C18.7116 8.716 17.074 10.3621 17.074 12.5191C17.074 14.7027 18.7026 16.393 20.5956 16.393ZM10.462 16.5957C12.0996 16.5957 13.5263 15.1163 13.5263 13.2057C13.5263 11.3131 12.0906 9.913 10.462 9.913C8.82486 9.913 7.38057 11.3483 7.38957 13.2237C7.38957 15.1163 8.81586 16.5957 10.4624 16.5957M5.54971 24.5457H12.2406C11.3251 23.2163 12.4433 20.5399 14.3363 19.0784C13.3591 18.427 12.0996 17.9427 10.4534 17.9427C6.48271 17.9423 4 20.8737 4 23.3127C4 24.1056 4.44014 24.5457 5.54971 24.5457ZM15.058 24.5457H26.1246C27.5067 24.5457 28 24.1493 28 23.3744C28 21.103 25.156 17.9689 20.587 17.9689C16.0266 17.9689 13.1826 21.103 13.1826 23.3749C13.1826 24.1493 13.6754 24.5457 15.058 24.5457Z" fill="white"/>
</g>
</svg>
